<?xml version="1.0" encoding="utf-8"?>
<!-- Generator: Adobe Illustrator 21.0.0, SVG Export Plug-In . SVG Version: 6.00 Build 0)  -->
<svg version="1.1" id="Layer_1" xmlns="http://www.w3.org/2000/svg" xmlns:xlink="http://www.w3.org/1999/xlink" x="0px" y="0px"
	 viewBox="0 0 200 40" style="enable-background:new 0 0 200 40;" xml:space="preserve">
<style type="text/css">
	.st0{fill:#219060;}
	.st1{fill:none;stroke:#219060;stroke-miterlimit:10;}
</style>
<g id="XMLID_1_">
	<g>
		<path class="st0" d="M220.5-3.8c0,0-7.1,24-8.1,23c-1-1-12,2-12,2s-40.9-20.1-100-0.4c-59.1,19.8-100-0.4-100-0.4L-18.5-8.6
			l72.1-20.7c0,0,139-2.5,140-1.5C194.6-29.9,220.5-3.8,220.5-3.8z"/>
	</g>
	<g>
		<path class="st1" d="M200.4,21.2c0,0-40.9-20.1-100-0.4c-59.1,19.8-100-0.4-100-0.4L-18.5-8.6l72.1-20.7c0,0,139-2.5,140-1.5
			c1,1,26.9,27.1,26.9,27.1s-7.1,24-8.1,23C211.4,18.2,200.4,21.2,200.4,21.2z"/>
	</g>
</g>
</svg>
