<?xml version="1.0" encoding="utf-8"?>
<!-- Generator: Adobe Illustrator 21.0.0, SVG Export Plug-In . SVG Version: 6.00 Build 0)  -->
<svg version="1.1" id="Layer_1" xmlns="http://www.w3.org/2000/svg" xmlns:xlink="http://www.w3.org/1999/xlink" x="0px" y="0px"
	 viewBox="0 0 200 40" style="enable-background:new 0 0 200 40;" xml:space="preserve">
<style type="text/css">
	.st0{fill:#FEE2EB;}
	.st1{fill:none;stroke:#FEE2EB;stroke-miterlimit:10;}
</style>
<g id="XMLID_1_">
	<g>
		<path class="st0" d="M199.5,20.5l19,29l-72,21c0,0-139,3-140,2s-27-27-27-27s7-24,8-23s12-2,12-2s41,20,100,0
			S199.5,20.5,199.5,20.5z"/>
	</g>
	<g>
		<path class="st1" d="M-0.5,20.5c0,0,41,20,100,0s100,0,100,0l19,29l-72,21c0,0-139,3-140,2s-27-27-27-27s7-24,8-23
			S-0.5,20.5-0.5,20.5z"/>
	</g>
</g>
</svg>
